<?xml version="1.0" encoding="UTF-8" standalone="no"?>
<svg width="64px" height="63px" viewBox="0 0 64 63" version="1.1" xmlns="http://www.w3.org/2000/svg" xmlns:xlink="http://www.w3.org/1999/xlink" xmlns:sketch="http://www.bohemiancoding.com/sketch/ns">
    <!-- Generator: Sketch 3.0.3 (7891) - http://www.bohemiancoding.com/sketch -->
    <title>Magnifier-zoom-in</title>
    <desc>Created with Sketch.</desc>
    <defs></defs>
    <g id="Page-1" stroke="none" stroke-width="1" fill="none" fill-rule="evenodd" sketch:type="MSPage">
        <g id="Magnifier-zoom-in" sketch:type="MSLayerGroup" transform="translate(1.000000, 1.000000)" stroke="#6B6C6E" stroke-width="2">
            <path d="M39,39.5 C34.9,43.5 29.2,46 23,46 C10.3,46 0,35.7 0,23 C0,10.3 10.3,0 23,0 C35.7,0 46,10.3 46,23 C46,27.4 44.8,31.5 42.6,35 L42.7,35.1 L61.6,54 C62.4,54.8 61.5,56.9 59.7,58.7 L59.7,58.7 C57.9,60.5 55.7,61.4 55,60.6 L36,41.6" id="Shape" sketch:type="MSShapeGroup"></path>
            <path d="M15.1,23 L31,23" id="Shape" sketch:type="MSShapeGroup"></path>
            <path d="M23,16 L23,31" id="Shape" sketch:type="MSShapeGroup"></path>
        </g>
    </g>
</svg>